# xmcd
#
# Track frame offsets: 
#        182
#        7457
#        23040
#        49105
#        76317
#        98790
#        116912
#        150625
#        165495
#        184130
#
# Disc length: 2771 seconds
#
# Revision: 17
# Processed by: cddbd v1.5.2PL0 Copyright (c) Steve Scherf et al.
# Submitted via: ExactAudioCopy v1.3
#
DISCID=790ad10a
DTITLE=Dio - The Last In Live
DYEAR=1998
DGENRE=Heavy Metal
TTITLE0=Intro
TTITLE1=Jesus, Mary And The Holy Ghost
TTITLE2=Straight Through The Heart
TTITLE3=Don't Talk To Strangers
TTITLE4=Holy Diver
TTITLE5=Drum Solo
TTITLE6=Heaven And Hell
TTITLE7=Double Monday
TTITLE8=Stand Up And Shout
TTITLE9=Hunter Of The Heart
EXTD=YEAR: 1998
EXTT0=
EXTT1=
EXTT2=
EXTT3=
EXTT4=
EXTT5=
EXTT6=
EXTT7=
EXTT8=
EXTT9=
PLAYORDER=
